<svg xmlns="http://www.w3.org/2000/svg" viewBox="0 0 231.32 150.53"><defs><style>.cls-1{font-size:18px;fill:#231f20;font-family:Poppins-ExtraBoldItalic, Poppins;font-weight:800;font-style:italic;letter-spacing:0.1em;}</style></defs><title>alxSE_1</title><g id="Layer_2" data-name="Layer 2"><g id="Layer_1-2" data-name="Layer 1"><path d="M60.11,33.21c2.28-1.27,3.58-2.6,4.92-2.64,7.44-.21,14.88-.1,22.68-.1v80.67c-7.85,0-15.61.13-23.35-.13-1.11,0-2.16-1.92-3.42-3.11-18.48,5.92-36,1.27-46.54-12.59a40.18,40.18,0,0,1-1.68-46.88C22.89,33.08,39.19,28,60.11,33.21Zm2,37.64a16.26,16.26,0,0,0-16.27-16.5,16.36,16.36,0,0,0,.23,32.72A16.21,16.21,0,0,0,62.09,70.85Z"/><path d="M161.55,93.8,142.84,76l23.62-22.61c-8.34-8.22-16-15.75-23.61-23.3l18-17.86,22.85,23.42,22.42-24c6.46,6.86,12.09,12.82,18.06,19.15l-22,21.06,23.22,22.92L206.2,92.89,184.48,70.06Z"/><path d="M130.49,111h-25.7c-.13-1.73-.35-3.31-.35-4.9,0-30,0-60.06-.09-90.09,0-3.28.85-5.08,4-6.35,7.31-2.94,14.47-6.26,22.14-9.62Z"/><text class="cls-1" transform="translate(0 139.44)">SoftwareEngineering</text></g></g></svg>