<svg xmlns="http://www.w3.org/2000/svg" viewBox="0 0 494.42 70.37"><defs><style>.cls-1{fill:#4862ad;}.cls-2{fill:#606161;}.cls-3{fill:#231f20;}</style></defs><title>logo</title><g id="Layer_2" data-name="Layer 2"><g id="Layer_1-2" data-name="Layer 1"><path class="cls-1" d="M74.41,62.14H48C49.84,56,49.3,50.23,45.33,45.06a17,17,0,0,0-11-6.62A17.89,17.89,0,0,0,13.85,58.85a4,4,0,0,1-1.07-.14A60.5,60.5,0,0,1,6.43,56C1.16,53.13-.77,49.37.27,43.41A81,81,0,0,1,3.1,33.14c.65-2,.91-3.87-1.16-5.57,2.42-.51,4.59-.95,6.76-1.42A123.1,123.1,0,0,0,34.58,17c8.43-4,17.09-7.25,26.33-8.77C69.66,6.8,78.44,6.31,87.17,8c5.2,1,10.28,2.66,15.41,4a7.07,7.07,0,0,1,1.16.49L75.3,40.25a101.12,101.12,0,0,0-7.36-7.63,61.08,61.08,0,0,0-7.83-5.14,1.66,1.66,0,0,0-1.47-.06c-3.15,2.19-6.25,4.46-9.61,6.88A54.07,54.07,0,0,1,74.41,62.14Z"/><path class="cls-2" d="M126.6,0,113.81,17.41c.67.51,1,.81,1.42,1.08,1.76,1.22,3.78,2.19,5.25,3.69,2.77,2.84,6.23,3.29,9.86,3.75,7.95,1,16,1.66,23.69,3.94a31.74,31.74,0,0,1,12,6.39,17.26,17.26,0,0,1,4.21,20.17c-1.59,3.38-4.51,4.93-8,5.35-3.31.4-6.68.39-10.15.56,2.48-9.12.44-16.59-7.54-21.57a16.26,16.26,0,0,0-18.66.31c-7.55,5.09-9.47,12.39-7,21H78.48c.64-1.92,1.19-3.73,1.84-5.49,4.91-13.26,12.93-24.53,22.39-34.87a203.34,203.34,0,0,1,22.81-21C125.86.49,126.23.26,126.6,0Zm42.71,42.89a15.23,15.23,0,0,0-5.38-6.75,5.21,5.21,0,0,0-2.37-1.35,49.68,49.68,0,0,0-6.9.21c-.65.06-1.24.72-1.85,1.1.43.59.74,1.46,1.32,1.73,3,1.39,6.06,2.76,9.18,3.87A43.33,43.33,0,0,0,169.31,42.89Z"/><path d="M31.38,41.37A14.5,14.5,0,1,1,16.89,56.12,14.45,14.45,0,0,1,31.38,41.37Zm1.52,2.51c-1.22.15-2.73-.89-2.76.93a44,44,0,0,0,.7,6.54c0,.23.4.42.61.63.19-.22.53-.43.56-.67C32.32,48.93,32.59,46.54,32.9,43.88Zm3.28.93c-1,2.44-2,4.69-3,7-.09.21.12.55.2.83.24-.07.58-.06.7-.22,1.53-2,3-4,4.65-6.11ZM21.71,48.66l-1.42,2.66,7.57,3.17.45-.76Zm20.9,2.65-1.54-2.6-6.59,5,.45.78ZM24.05,46.25c1.58,2.11,3,4,4.43,5.87.19.24.61.31.93.46.05-.33.23-.72.13-1-.91-2.23-1.87-4.43-2.88-6.79Zm19.26,8.27-8.2,1.1,0,.82,8.18,1.06Zm-1,6.3c-3.21-2-7-3.25-8-2.59l6.61,5ZM27.7,56.45l0-.87-8.07-1v2.93Zm-7.34,4.22,1.56,2.54,6.51-5-.3-.64C25.49,58.29,23.1,59.65,20.36,60.67ZM33.61,59l-.76.39L36.05,67l2.52-1.55Zm-3.73.33-.7-.33-4.94,6.58,2.53,1.39C27.87,64.26,29.1,61.86,29.88,59.3Zm3,8.47c-.38-2.88-.73-5.54-1.07-8.2l-.84,0c-.33,2.69-.66,5.37-1,8.17Z"/><path d="M135.51,41.41A14.46,14.46,0,1,1,121,56.11,14.4,14.4,0,0,1,135.51,41.41ZM134,43.84c.31,2.68.57,5.11.89,7.53,0,.24.36.44.55.66.25-.23.64-.43.71-.71a15.36,15.36,0,0,0,.31-2.26c.18-1.7.34-3.4.51-5.22Zm-5.9,2.44c1.58,2.09,3,4,4.42,5.82.22.28.69.36,1,.53,0-.38.18-.81.05-1.12-.89-2.22-1.84-4.42-2.84-6.79Zm14.82,0-2.7-1.49c-1,2.41-1.94,4.62-2.83,6.84a2.9,2.9,0,0,0,0,1c.36-.13.85-.16,1.05-.42C139.87,50.31,141.29,48.38,142.89,46.24Zm-18.65,5.09L132,54.54l.43-.7a61.43,61.43,0,0,0-6.63-5.16Zm14.35,2.52.49.67,7.62-3.22-1.57-2.69C142.89,50.53,140.47,51.88,138.59,53.85Zm8.76,3.67v-3c-2.52.29-4.9.55-7.28.89-.31,0-.57.49-.85.75a3.07,3.07,0,0,0,.93.45C142.48,56.94,144.81,57.21,147.35,57.52ZM126,63.26l6.68-5.08c-1.12-.66-5.12.72-8.17,2.65Zm20.57-2.58c-2.39-1-4.63-2-6.89-2.93-.31-.13-.75.09-1.63.23l7,5.29Zm-18.31,4.89L130.88,67c1-2.42,2-4.63,2.9-6.86.11-.26-.08-.65-.13-1-.3.14-.71.19-.89.42C131.28,61.46,129.85,63.4,128.22,65.57Zm14.48,0c-1.61-2.15-3-4.08-4.52-6-.17-.23-.57-.27-.87-.4-.07.27-.26.59-.18.8,1,2.32,1.94,4.61,3,7.09Zm-5.76,2.27c-.29-2.61-.55-5-.87-7.47,0-.27-.44-.5-.68-.75-.18.3-.48.58-.53.9-.17,1.08-.27,2.17-.38,3.26-.15,1.33-.28,2.65-.43,4.06ZM123.57,57.55c2.58-.33,5-.61,7.33-.94.29,0,.53-.39.8-.59-.23-.2-.43-.54-.67-.57-2.46-.34-4.92-.62-7.46-.93Z"/><path class="cls-3" d="M219.74,28.9h-12l-4.95,40.82H191.3l5-40.82H184.31l1.22-10.3H221Z"/><path class="cls-3" d="M230.51,39.41q4.25-5.53,10.08-5.54l-1.52,12a6.36,6.36,0,0,0-7.1,1.54q-3,3-3.81,9.44l-1.64,12.92H215.86l4.45-35.2H231l-.62,4.85Z"/><path class="cls-3" d="M266,34.52h10.87l-4.32,35.2H261.72l.72-5.75h-.14q-4.11,6.41-10.15,6.4a10,10,0,0,1-8.54-4,17,17,0,0,1-3-10.37q0-9.36,4.86-15.77t11.77-6.4q5.4,0,8.42,3.24h.07ZM255.53,60.8q3.09,0,5.87-4A23.31,23.31,0,0,0,265,46.18v-.07a7.64,7.64,0,0,0-5.83-2.66q-3.31,0-5.47,3.7a15.58,15.58,0,0,0-2.16,8,7.1,7.1,0,0,0,1.08,4.14A3.41,3.41,0,0,0,255.53,60.8Z"/><path class="cls-3" d="M307.79,16.73h10.88l-6.47,53H301.32L302,64l-.14,0q-4.11,6.41-10.29,6.4a9.88,9.88,0,0,1-8.45-4,17,17,0,0,1-3-10.37q0-9.36,4.82-15.77t11.71-6.4a11,11,0,0,1,8.48,3.31l.15,0ZM295.06,60.8q3.09,0,5.9-4a23,23,0,0,0,3.6-10.66V46a7.53,7.53,0,0,0-5.9-2.59c-2.26,0-4.09,1.22-5.51,3.67a15.62,15.62,0,0,0-2.13,8,7.1,7.1,0,0,0,1.09,4.14A3.41,3.41,0,0,0,295.06,60.8Z"/><path class="cls-3" d="M334.87,61.45a8,8,0,0,0,6.48-3.53l8,4.68q-5.48,7.77-15.34,7.77-6.92,0-10.84-4t-3.92-11.08a22.87,22.87,0,0,1,5.29-15.23,17.47,17.47,0,0,1,14.08-6.3A13.72,13.72,0,0,1,347,36.43a8.71,8.71,0,0,1,3.56,7.45q0,5.53-5.62,9a38.35,38.35,0,0,1-14.33,4.72l-.43.64A4.61,4.61,0,0,0,334.87,61.45Zm2.95-18.58a6.54,6.54,0,0,0-4.57,2,11.58,11.58,0,0,0-3.06,5.54l.43.29q9.66-1.74,9.65-5.83C340.27,43.54,339.46,42.87,337.82,42.87Z"/><path class="cls-3" d="M404.5,18.6h12.31L396.14,69.72H385.56l-3.31-32.25h-.14L370.66,69.72H360.07L352,18.6H364l3.67,31.33h.15L378.29,18.6h12.17l2.66,31.25h.22Z"/><path class="cls-1" d="M419,34.52h10.66l-4.45,35.2H414.5Zm6.78-17.07a6.49,6.49,0,0,1,4.68,1.73,5.91,5.91,0,0,1,1.8,4.46,6.1,6.1,0,0,1-1.88,4.61,6.65,6.65,0,0,1-4.82,1.8,6.4,6.4,0,0,1-4.64-1.76A5.87,5.87,0,0,1,419,23.86a6.11,6.11,0,0,1,1.87-4.61A6.69,6.69,0,0,1,425.74,17.45Z"/><path class="cls-3" d="M437.26,58.06a11.47,11.47,0,0,0,3.7,3,9.2,9.2,0,0,0,4.29,1.16c2.11,0,3.16-.65,3.16-2a1.82,1.82,0,0,0-.86-1.44,28.61,28.61,0,0,0-3.53-2,7.48,7.48,0,0,1-1-.51,21.29,21.29,0,0,1-6.49-4.61,9,9,0,0,1-2.16-6.12,10.82,10.82,0,0,1,3.78-8.49,13.57,13.57,0,0,1,9.26-3.31q8.05,0,12.67,5.68l-6.48,6.2q-2.52-3.52-6.05-3.53a3,3,0,0,0-2,.5,1.85,1.85,0,0,0-.83,1.59A2.35,2.35,0,0,0,445.9,46a24.9,24.9,0,0,0,3.81,2.15,24.77,24.77,0,0,1,6.91,4.65,8.55,8.55,0,0,1,2.24,6.16,10.09,10.09,0,0,1-3.71,8.31q-3.78,3.14-10.19,3.13a19.47,19.47,0,0,1-7.74-1.62,15,15,0,0,1-6-4.42Z"/><path class="cls-3" d="M478.73,61.45a8.05,8.05,0,0,0,6.48-3.53l8,4.68q-5.47,7.77-15.34,7.77-6.92,0-10.83-4T463.1,55.33a22.92,22.92,0,0,1,5.29-15.23,17.47,17.47,0,0,1,14.08-6.3,13.7,13.7,0,0,1,8.39,2.63,8.71,8.71,0,0,1,3.56,7.45q0,5.53-5.61,9a38.41,38.41,0,0,1-14.33,4.72l-.43.64A4.6,4.6,0,0,0,478.73,61.45Zm2.95-18.58a6.52,6.52,0,0,0-4.57,2,11.42,11.42,0,0,0-3.06,5.54l.43.29q9.64-1.74,9.65-5.83C484.13,43.54,483.31,42.87,481.68,42.87Z"/></g></g></svg>